<?xml version="1.0" encoding="UTF-8" standalone="no"?>
<!DOCTYPE svg PUBLIC "-//W3C//DTD SVG 1.1//EN" "http://www.w3.org/Graphics/SVG/1.1/DTD/svg11.dtd">

<svg viewBox="0 0 64 64" preserveAspectRatio="xMidYMin meet">
    <g id="soda-can">
        <g class="surface">
            <polyline class="surface-light" fill="#7ccacb" points="51 8 51 57 13 57 13 8" />
            <g class="surface-rim" fill="#70bbbb">
                <path class="surface-rim-light" d="M42,8H13.59l1.59-1.69a6.35,6.35,0,0,0,1.75-3.46L17.06,2H42" />
                <path class="surface-rim-shadow" d="M41,62H16.08l-.15-.82a5.84,5.84,0,0,0-1.23-2.56L13.41,57H41" />
            </g>
            <g class="surface-shadow" fill="#5ca1a1">
                <path d="M41,2h5.94l.13.85a6.35,6.35,0,0,0,1.75,3.46L50.41,8H41" />
                <rect x="41" y="8" width="10" height="49" />
                <path d="M41,57h9.59l-1.28,1.62a5.84,5.84,0,0,0-1.23,2.56l-.15.82H41" />
            </g>
        </g>
        <g class="label">
            <rect class="label-light"  fill="#f58787" x="13" y="14" width="38" height="26" />
            <rect class="label-shadow" fill="#dd7a7a" x="41" y="14" width="10" height="26" />
        </g>
        <g class="logo-bottom" stroke="#544f4b">
            <line x1="22" y1="45" x2="42" y2="45" fill="none" stroke-miterlimit="10" stroke-width="2" />
            <line x1="27" y1="50" x2="29" y2="50" fill="none" stroke-miterlimit="10" stroke-width="2" />
            <line x1="31" y1="50" x2="33" y2="50" fill="none" stroke-miterlimit="10" stroke-width="2" />
            <line x1="35" y1="50" x2="37" y2="50" fill="none" stroke-miterlimit="10" stroke-width="2" />
        </g>
        <g class="outline" stroke="#544f4b" fill="none" stroke-miterlimit="10" stroke-width="2">
            <path d="M48,62c0-3,3-5,3-5V8s-4-2-4-6" />
            <path d="M17,2c0,4-4,6-4,6V57s3,2,3,5"  />
            <line x1="13" y1="8"  x2="13" y2="57" />
            <line x1="48" y1="2"  x2="16" y2="2" stroke-linecap="round" />
            <line x1="13" y1="57" x2="51" y2="57" />
            <line x1="38" y1="8"  x2="13" y2="8"  />
            <line x1="51" y1="8"  x2="41" y2="8"  />
            <line x1="15" y1="62" x2="49" y2="62" stroke-linecap="round" />
        </g>
        
        <g class="logo-top">
            <!--
                Credit to Yoksel for the inspiring SVG and CSS work
                https://codepen.io/yoksel/
              -->
            <symbol id="s-text" viewBox="0 0 1200 900" preserveAspectRatio="xMidYMid meet">
                <text text-anchor="middle" x="50%" y="35%" class="text--line">
                    Bad
                </text>
                <text text-anchor="middle" x="50%" y="58%" class="text--line2">
                    Soda
                </text>
            </symbol>
            <g class="g-ants">
                <use xlink:href="#s-text" class="text-copy"></use>
                <use xlink:href="#s-text" class="text-copy"></use>
                <use xlink:href="#s-text" class="text-copy"></use>
                <use xlink:href="#s-text" class="text-copy"></use>
                <use xlink:href="#s-text" class="text-copy"></use>
            </g>
        </g>
        
    </g>
</svg>